<svg width="24" height="25" viewBox="0 0 24 25" fill="none" xmlns="http://www.w3.org/2000/svg">
<path d="M23.79 5.78887C23.6119 5.56987 23.3447 5.44275 23.0625 5.44275H6.08138L6.01181 4.80375L6.00933 4.78322C5.67652 2.24644 3.49608 0.333374 0.9375 0.333374C0.419719 0.333374 0 0.753093 0 1.27087C0 1.78866 0.419719 2.20837 0.9375 2.20837C2.55497 2.20837 3.93389 3.41536 4.149 5.0175L5.26336 15.255C4.28883 15.6974 3.60938 16.6797 3.60938 17.8177C3.60938 17.8256 3.60947 17.8334 3.60966 17.8412C3.60947 17.849 3.60938 17.8568 3.60938 17.8646C3.60938 19.4154 4.87106 20.6771 6.42188 20.6771H6.80334C6.708 20.9567 6.65625 21.2563 6.65625 21.5677C6.65625 23.0927 7.89689 24.3334 9.42188 24.3334C10.9469 24.3334 12.1875 23.0927 12.1875 21.5677C12.1875 21.2563 12.1358 20.9567 12.0404 20.6771H16.0846C15.9893 20.9567 15.9375 21.2563 15.9375 21.5677C15.9375 23.0927 17.1782 24.3334 18.7032 24.3334C20.2282 24.3334 21.4688 23.0927 21.4688 21.5677C21.4688 20.0428 20.2282 18.8021 18.7032 18.8021H6.42188C5.90494 18.8021 5.48438 18.3816 5.48438 17.8646C5.48438 17.8568 5.48428 17.849 5.48409 17.8412C5.48428 17.8334 5.48438 17.8256 5.48438 17.8177C5.48438 17.3008 5.90494 16.8802 6.42188 16.8802H18.3905C20.0547 16.8802 21.582 15.8506 22.2814 14.257C22.4895 13.7829 22.2739 13.2299 21.7998 13.0218C21.3257 12.8137 20.7727 13.0293 20.5645 13.5034C20.1703 14.4017 19.2966 15.0052 18.3905 15.0052H7.12224L6.28547 7.31775H21.9093L21.4506 9.51694C21.3449 10.0238 21.67 10.5204 22.1769 10.6261C22.2414 10.6396 22.3058 10.6461 22.3693 10.6461C22.8039 10.6461 23.1938 10.3421 23.2861 9.89981L23.9802 6.57169C24.0379 6.29541 23.968 6.00787 23.79 5.78887ZM18.7031 20.6771C19.1942 20.6771 19.5938 21.0766 19.5938 21.5677C19.5938 22.0589 19.1942 22.4584 18.7031 22.4584C18.212 22.4584 17.8125 22.0589 17.8125 21.5677C17.8125 21.0766 18.212 20.6771 18.7031 20.6771ZM9.42188 20.6771C9.91299 20.6771 10.3125 21.0767 10.3125 21.5677C10.3125 22.0589 9.91299 22.4584 9.42188 22.4584C8.93077 22.4584 8.53125 22.0589 8.53125 21.5677C8.53125 21.0766 8.93077 20.6771 9.42188 20.6771Z" fill="#0E0E0E"/>
</svg>
