<svg width="19" height="19" viewBox="0 0 19 19" fill="none" xmlns="http://www.w3.org/2000/svg">
<path d="M18.6215 2.09473H0.378479C0.169441 2.09473 0 2.26421 0 2.47324V7.51128C0 7.61541 0.0429356 7.71494 0.118602 7.78645L1.91124 9.47949C1.99942 13.5891 5.36958 16.9052 9.5 16.9052C13.6304 16.9052 17.0006 13.5891 17.0888 9.47945L18.8814 7.78641C18.9571 7.7149 19 7.61538 19 7.51125V2.47324C19 2.26421 18.8306 2.09473 18.6215 2.09473ZM9.5 16.1482C5.85875 16.1482 2.87349 13.2857 2.67648 9.6928H16.3235C16.1265 13.2857 13.1412 16.1482 9.5 16.1482ZM18.243 7.34811L16.5619 8.93588H2.43809L1.27426 7.8367H12.9471C13.1561 7.8367 13.3256 7.66726 13.3256 7.45822C13.3256 7.24918 13.1561 7.07974 12.9471 7.07974H0.756957V2.85172H18.243V7.34811H18.243Z" fill="#496C00"/>
<path d="M15.97 7.07971H15.2276C15.0186 7.07971 14.8491 7.24915 14.8491 7.45819C14.8491 7.66723 15.0186 7.83667 15.2276 7.83667H15.97C16.1791 7.83667 16.3485 7.66723 16.3485 7.45819C16.3485 7.24915 16.1791 7.07971 15.97 7.07971Z" fill="#496C00"/>
<path d="M9.49994 12.9275C8.25622 12.9275 7.31836 13.5006 7.31836 14.2606C7.31836 15.0205 8.25626 15.5937 9.49994 15.5937C10.7436 15.5937 11.6815 15.0205 11.6815 14.2606C11.6815 13.5006 10.7437 12.9275 9.49994 12.9275ZM9.49994 14.8367C8.64353 14.8367 8.07532 14.4899 8.07532 14.2606C8.07532 14.0312 8.64353 13.6844 9.49994 13.6844C10.3564 13.6844 10.9246 14.0312 10.9246 14.2605C10.9246 14.4899 10.3564 14.8367 9.49994 14.8367Z" fill="#496C00"/>
</svg>
