<svg width="26" height="27" viewBox="0 0 26 27" fill="none" xmlns="http://www.w3.org/2000/svg">
<path d="M1.4757 18.905L9.95051 7.43966C10.2131 7.08437 11.0639 7.26734 11.8496 7.84807L18.5675 12.8137C19.3531 13.3945 19.7776 14.1541 19.515 14.5094L11.0402 25.9748C10.7776 26.3301 9.92679 26.1471 9.14114 25.5664L2.42323 20.6007C1.63694 20.0208 1.21244 19.2612 1.4757 18.905Z" stroke="#496C00" stroke-miterlimit="10" stroke-linecap="round" stroke-linejoin="round"/>
<path d="M11.563 10.5942L16.0264 13.8935" stroke="#496C00" stroke-miterlimit="10" stroke-linecap="round" stroke-linejoin="round"/>
<path d="M8.26367 15.0576L9.93746 16.2948L8.99482 17.5701L7.32104 16.3329L8.26367 15.0576Z" stroke="#496C00" stroke-miterlimit="10" stroke-linecap="round" stroke-linejoin="round"/>
<path d="M11.0532 17.1196L12.727 18.3568L11.7844 19.6321L10.1106 18.3949L11.0532 17.1196Z" stroke="#496C00" stroke-miterlimit="10" stroke-linecap="round" stroke-linejoin="round"/>
<path d="M10.1489 12.5071L11.8227 13.7443L10.8801 15.0196L9.20629 13.7823L10.1489 12.5071Z" stroke="#496C00" stroke-miterlimit="10" stroke-linecap="round" stroke-linejoin="round"/>
<path d="M12.9385 14.5691L14.6123 15.8063L13.6696 17.0816L11.9958 15.8444L12.9385 14.5691Z" stroke="#496C00" stroke-miterlimit="10" stroke-linecap="round" stroke-linejoin="round"/>
<path d="M13.9713 4.02081V4.02081C18.1644 3.59466 21.9944 6.42568 22.8171 10.5593V10.5593" stroke="#496C00"/>
<path d="M14.3909 6.81797V6.81797C17.4806 6.3546 20.3608 8.48361 20.8242 11.5732V11.5732" stroke="#496C00"/>
<rect x="7.59218" y="18.1411" width="2.96458" height="2.96458" rx="1.48229" transform="rotate(36.4706 7.59218 18.1411)" stroke="#496C00"/>
</svg>
