<svg width="18" height="18" viewBox="0 0 18 18" fill="none" xmlns="http://www.w3.org/2000/svg">
<path d="M10.125 12.75V14.25L9 16.5L7.875 14.25L10.125 12.75ZM10.875 4.725L10.125 5.25V4.5H7.875V6.75L7.125 7.275V8.025L10.875 5.55V4.725ZM10.875 7.725L10.125 8.25V6.75L7.875 8.25V9.75L7.125 10.275V11.025L10.875 8.55V7.725ZM10.875 10.725L10.125 11.25V9.75L7.875 11.25V12.75L7.125 13.275V14.025L10.875 11.55V10.725ZM6 1.5C6 1.5 5.25 1.5 5.25 2.25L7.5 3.75H10.5L12.75 2.25C12.75 2.25 12.75 1.5 12 1.5C11.25 1.5 6 1.5 6 1.5Z" fill="#496C00"/>
</svg>
