<svg width="17" height="17" viewBox="0 0 17 17" fill="none" xmlns="http://www.w3.org/2000/svg">
<line x1="4.5" y1="17.0001" x2="4.5" y2="11.0001" stroke="#496C00"/>
<line x1="12.5" y1="17.0001" x2="12.5" y2="11.0001" stroke="#496C00"/>
<line x1="4" y1="11.5001" x2="12" y2="11.5001" stroke="#496C00"/>
<path d="M10.0443 11.2585L10.0622 11.105C10.3523 8.61993 12.0465 6.52365 14.4153 5.71862V5.71862" stroke="#496C00" stroke-width="0.8"/>
<path d="M8.90356 11.8846L8.89029 11.7393C8.53177 7.81296 10.4298 4.02278 13.7885 1.95799V1.95799" stroke="#496C00" stroke-width="0.8"/>
<path d="M7.62769 10.8627L7.64511 10.6147C7.90844 6.86635 5.72644 3.37527 2.24169 1.96956V1.96956" stroke="#496C00" stroke-width="0.8"/>
<path d="M6.04342 11.7542L6.03558 11.5343C5.94297 8.93755 4.3069 6.64768 1.88028 5.7185V5.7185" stroke="#496C00" stroke-width="0.8"/>
<circle cx="15.5" cy="5.50012" r="1.5" fill="#496C00"/>
<circle cx="14.5" cy="1.50012" r="1.5" fill="#496C00"/>
<circle cx="2.5" cy="2.50012" r="1.5" fill="#496C00"/>
<circle cx="1.5" cy="5.50012" r="1.5" fill="#496C00"/>
</svg>
