<svg width="39" height="32" viewBox="0 0 39 32" fill="none" xmlns="http://www.w3.org/2000/svg">
<rect x="0.5" y="0.5" width="38" height="31" rx="4.5" fill="#80B11A"/>
<path d="M8 5.5C8 4.94772 8.44772 4.5 9 4.5H13.1333C13.6856 4.5 14.1333 4.94772 14.1333 5.5V9.63333C14.1333 10.1856 13.6856 10.6333 13.1333 10.6333H9C8.44772 10.6333 8 10.1856 8 9.63333V5.5Z" fill="white"/>
<path d="M8 13.9333C8 13.381 8.44772 12.9333 9 12.9333H13.1333C13.6856 12.9333 14.1333 13.381 14.1333 13.9333V18.0667C14.1333 18.619 13.6856 19.0667 13.1333 19.0667H9C8.44772 19.0667 8 18.619 8 18.0667V13.9333Z" fill="white"/>
<path d="M8 22.3667C8 21.8144 8.44772 21.3667 9 21.3667H13.1333C13.6856 21.3667 14.1333 21.8144 14.1333 22.3667V26.5C14.1333 27.0523 13.6856 27.5 13.1333 27.5H9C8.44772 27.5 8 27.0523 8 26.5V22.3667Z" fill="white"/>
<path d="M16.4333 5.5C16.4333 4.94772 16.881 4.5 17.4333 4.5H21.5667C22.119 4.5 22.5667 4.94772 22.5667 5.5V9.63333C22.5667 10.1856 22.119 10.6333 21.5667 10.6333H17.4333C16.881 10.6333 16.4333 10.1856 16.4333 9.63333V5.5Z" fill="white"/>
<path d="M16.4333 13.9333C16.4333 13.381 16.881 12.9333 17.4333 12.9333H21.5667C22.119 12.9333 22.5667 13.381 22.5667 13.9333V18.0667C22.5667 18.619 22.119 19.0667 21.5667 19.0667H17.4333C16.881 19.0667 16.4333 18.619 16.4333 18.0667V13.9333Z" fill="white"/>
<path d="M16.4333 22.3667C16.4333 21.8144 16.881 21.3667 17.4333 21.3667H21.5667C22.119 21.3667 22.5667 21.8144 22.5667 22.3667V26.5C22.5667 27.0523 22.119 27.5 21.5667 27.5H17.4333C16.881 27.5 16.4333 27.0523 16.4333 26.5V22.3667Z" fill="white"/>
<path d="M24.8667 5.5C24.8667 4.94772 25.3144 4.5 25.8667 4.5H30C30.5523 4.5 31 4.94772 31 5.5V9.63333C31 10.1856 30.5523 10.6333 30 10.6333H25.8667C25.3144 10.6333 24.8667 10.1856 24.8667 9.63333V5.5Z" fill="white"/>
<path d="M24.8667 13.9333C24.8667 13.381 25.3144 12.9333 25.8667 12.9333H30C30.5523 12.9333 31 13.381 31 13.9333V18.0667C31 18.619 30.5523 19.0667 30 19.0667H25.8667C25.3144 19.0667 24.8667 18.619 24.8667 18.0667V13.9333Z" fill="white"/>
<path d="M24.8667 22.3667C24.8667 21.8144 25.3144 21.3667 25.8667 21.3667H30C30.5523 21.3667 31 21.8144 31 22.3667V26.5C31 27.0523 30.5523 27.5 30 27.5H25.8667C25.3144 27.5 24.8667 27.0523 24.8667 26.5V22.3667Z" fill="white"/>
<rect x="0.5" y="0.5" width="38" height="31" rx="4.5" stroke="#80B11A"/>
</svg>
