<svg width="23" height="24" viewBox="0 0 23 24" fill="none" xmlns="http://www.w3.org/2000/svg">
<path d="M0 1.5C0 0.947716 0.447715 0.5 1 0.5H5.13333C5.68562 0.5 6.13333 0.947715 6.13333 1.5V5.63333C6.13333 6.18562 5.68562 6.63333 5.13333 6.63333H1C0.447716 6.63333 0 6.18562 0 5.63333V1.5Z" fill="white"/>
<path d="M0 9.93333C0 9.38105 0.447715 8.93333 1 8.93333H5.13333C5.68562 8.93333 6.13333 9.38105 6.13333 9.93333V14.0667C6.13333 14.619 5.68562 15.0667 5.13333 15.0667H1C0.447716 15.0667 0 14.619 0 14.0667V9.93333Z" fill="white"/>
<path d="M0 18.3667C0 17.8144 0.447715 17.3667 1 17.3667H5.13333C5.68562 17.3667 6.13333 17.8144 6.13333 18.3667V22.5C6.13333 23.0523 5.68562 23.5 5.13333 23.5H1C0.447716 23.5 0 23.0523 0 22.5V18.3667Z" fill="white"/>
<path d="M8.43333 1.5C8.43333 0.947716 8.88105 0.5 9.43333 0.5H13.5667C14.119 0.5 14.5667 0.947715 14.5667 1.5V5.63333C14.5667 6.18562 14.119 6.63333 13.5667 6.63333H9.43333C8.88105 6.63333 8.43333 6.18562 8.43333 5.63333V1.5Z" fill="white"/>
<path d="M8.43333 9.93333C8.43333 9.38105 8.88105 8.93333 9.43333 8.93333H13.5667C14.119 8.93333 14.5667 9.38105 14.5667 9.93333V14.0667C14.5667 14.619 14.119 15.0667 13.5667 15.0667H9.43333C8.88105 15.0667 8.43333 14.619 8.43333 14.0667V9.93333Z" fill="white"/>
<path d="M8.43333 18.3667C8.43333 17.8144 8.88105 17.3667 9.43333 17.3667H13.5667C14.119 17.3667 14.5667 17.8144 14.5667 18.3667V22.5C14.5667 23.0523 14.119 23.5 13.5667 23.5H9.43333C8.88105 23.5 8.43333 23.0523 8.43333 22.5V18.3667Z" fill="white"/>
<path d="M16.8667 1.5C16.8667 0.947716 17.3144 0.5 17.8667 0.5H22C22.5523 0.5 23 0.947715 23 1.5V5.63333C23 6.18562 22.5523 6.63333 22 6.63333H17.8667C17.3144 6.63333 16.8667 6.18562 16.8667 5.63333V1.5Z" fill="white"/>
<path d="M16.8667 9.93333C16.8667 9.38105 17.3144 8.93333 17.8667 8.93333H22C22.5523 8.93333 23 9.38105 23 9.93333V14.0667C23 14.619 22.5523 15.0667 22 15.0667H17.8667C17.3144 15.0667 16.8667 14.619 16.8667 14.0667V9.93333Z" fill="white"/>
<path d="M16.8667 18.3667C16.8667 17.8144 17.3144 17.3667 17.8667 17.3667H22C22.5523 17.3667 23 17.8144 23 18.3667V22.5C23 23.0523 22.5523 23.5 22 23.5H17.8667C17.3144 23.5 16.8667 23.0523 16.8667 22.5V18.3667Z" fill="white"/>
</svg>
