<svg width="21" height="20" viewBox="0 0 21 20" fill="none" xmlns="http://www.w3.org/2000/svg">
<path d="M19.8648 8.76932L19.8647 8.76928L11.0308 0.606932C11.0308 0.606883 11.0307 0.606835 11.0307 0.606786C10.7349 0.331073 10.2651 0.331071 9.96936 0.606781C9.96931 0.606831 9.96926 0.606882 9.9692 0.606932L1.13564 8.76895C0.985632 8.90749 0.9 9.09943 0.9 9.30104C0.9 9.71244 1.2472 10.0385 1.66608 10.0385H2.74005V18.8626C2.74005 19.274 3.08721 19.6 3.50614 19.6H8.16872C8.58764 19.6 8.9348 19.274 8.9348 18.8626V13.8631H12.0652V18.8626C12.0652 19.274 12.4124 19.6 12.8313 19.6H17.4939C17.9128 19.6 18.26 19.274 18.26 18.8626V10.0385H19.3339C19.5402 10.0385 19.7385 9.95838 19.8832 9.81512L19.8128 9.74406L19.8832 9.81512C20.1794 9.52181 20.1709 9.05255 19.8648 8.76932ZM18.16 9.20104C17.741 9.20104 17.3939 9.52709 17.3939 9.93848V18.7626H12.9313V13.7631C12.9313 13.3517 12.5841 13.0257 12.1652 13.0257H8.8348C8.41588 13.0257 8.06872 13.3517 8.06872 13.7631V18.7626H3.60614V9.93848C3.60614 9.52709 3.25898 9.20104 2.84005 9.20104H1.92167L10.5 1.27483L19.0816 9.20104H18.16Z" fill="black" stroke="#0E0E0E" stroke-width="0.2"/>
</svg>
