<svg width="16" height="19" viewBox="0 0 16 19" fill="none" xmlns="http://www.w3.org/2000/svg">
<path d="M11.9566 5.65685C11.9566 7.98924 10.1193 9.84654 7.8936 9.84654C5.66789 9.84654 3.83057 7.98924 3.83057 5.65685C3.83057 3.32447 5.66789 1.46716 7.8936 1.46716C10.1193 1.46716 11.9566 3.32447 11.9566 5.65685Z" stroke="#0E0E0E" stroke-width="1.5"/>
<mask id="path-2-inside-1_80_1743" fill="white">
<path fill-rule="evenodd" clip-rule="evenodd" d="M11.9685 12.2616C10.7787 12.9923 9.38287 13.4137 7.89344 13.4137C6.40403 13.4137 5.00825 12.9923 3.8184 12.2616C3.70323 12.1909 3.62624 12.1574 3.58244 12.1433C2.53067 12.361 1.69263 13.3329 1.69263 14.5482V16.5C1.69263 16.7761 1.91648 17 2.19263 17H13.5943C13.8705 17 14.0943 16.7761 14.0943 16.5V14.5482C14.0943 13.3328 13.2563 12.361 12.2045 12.1432C12.1607 12.1574 12.0837 12.1909 11.9685 12.2616ZM11.1836 10.9834C11.5602 10.7521 11.988 10.5783 12.4228 10.6577C14.2255 10.9868 15.5943 12.6034 15.5943 14.5482V16.5C15.5943 17.6045 14.6989 18.5 13.5943 18.5H2.19263C1.08806 18.5 0.192627 17.6045 0.192627 16.5V14.5482C0.192627 12.6035 1.56138 10.9868 3.36411 10.6577C3.79892 10.5783 4.22665 10.7521 4.60331 10.9834C5.56539 11.5742 6.69078 11.9137 7.89344 11.9137C9.09611 11.9137 10.2215 11.5742 11.1836 10.9834Z"/>
</mask>
<path fill-rule="evenodd" clip-rule="evenodd" d="M11.9685 12.2616C10.7787 12.9923 9.38287 13.4137 7.89344 13.4137C6.40403 13.4137 5.00825 12.9923 3.8184 12.2616C3.70323 12.1909 3.62624 12.1574 3.58244 12.1433C2.53067 12.361 1.69263 13.3329 1.69263 14.5482V16.5C1.69263 16.7761 1.91648 17 2.19263 17H13.5943C13.8705 17 14.0943 16.7761 14.0943 16.5V14.5482C14.0943 13.3328 13.2563 12.361 12.2045 12.1432C12.1607 12.1574 12.0837 12.1909 11.9685 12.2616ZM11.1836 10.9834C11.5602 10.7521 11.988 10.5783 12.4228 10.6577C14.2255 10.9868 15.5943 12.6034 15.5943 14.5482V16.5C15.5943 17.6045 14.6989 18.5 13.5943 18.5H2.19263C1.08806 18.5 0.192627 17.6045 0.192627 16.5V14.5482C0.192627 12.6035 1.56138 10.9868 3.36411 10.6577C3.79892 10.5783 4.22665 10.7521 4.60331 10.9834C5.56539 11.5742 6.69078 11.9137 7.89344 11.9137C9.09611 11.9137 10.2215 11.5742 11.1836 10.9834Z" fill="white"/>
<path d="M11.9685 12.2616L12.5616 13.2274V13.2274L11.9685 12.2616ZM3.8184 12.2616L3.22536 13.2274H3.22536L3.8184 12.2616ZM3.58244 12.1433L3.93156 11.065L3.6463 10.9727L3.35269 11.0335L3.58244 12.1433ZM12.2045 12.1432L12.4342 11.0334L12.1406 10.9727L11.8553 11.065L12.2045 12.1432ZM12.4228 10.6577L12.2192 11.7726L12.4228 10.6577ZM11.1836 10.9834L10.5906 10.0176L10.5906 10.0176L11.1836 10.9834ZM3.36411 10.6577L3.16055 9.5428L3.36411 10.6577ZM4.60331 10.9834L4.01027 11.9492L4.01027 11.9492L4.60331 10.9834ZM7.89344 14.547C9.59957 14.547 11.1996 14.0637 12.5616 13.2274L11.3755 11.2958C10.3577 11.9208 9.16617 12.2804 7.89344 12.2804V14.547ZM3.22536 13.2274C4.58726 14.0637 6.18733 14.547 7.89344 14.547V12.2804C6.62073 12.2804 5.42924 11.9208 4.41144 11.2959L3.22536 13.2274ZM3.23332 13.2215C3.21313 13.2149 3.19875 13.2093 3.19071 13.206C3.18239 13.2026 3.17837 13.2006 3.17885 13.2009C3.18009 13.2015 3.19529 13.209 3.22536 13.2274L4.41144 11.2959C4.24766 11.1953 4.08723 11.1154 3.93156 11.065L3.23332 13.2215ZM2.82596 14.5482C2.82596 13.8627 3.29394 13.3603 3.8122 13.2531L3.35269 11.0335C1.76739 11.3616 0.559294 12.803 0.559294 14.5482H2.82596ZM2.82596 16.5V14.5482H0.559294V16.5H2.82596ZM2.19263 15.8666C2.54241 15.8666 2.82596 16.1502 2.82596 16.5H0.559294C0.559294 17.402 1.29056 18.1333 2.19263 18.1333V15.8666ZM13.5943 15.8666H2.19263V18.1333H13.5943V15.8666ZM12.961 16.5C12.961 16.1502 13.2446 15.8666 13.5943 15.8666V18.1333C14.4964 18.1333 15.2277 17.402 15.2277 16.5H12.961ZM12.961 14.5482V16.5H15.2277V14.5482H12.961ZM11.9747 13.253C12.493 13.3603 12.961 13.8627 12.961 14.5482H15.2277C15.2277 12.803 14.0195 11.3616 12.4342 11.0334L11.9747 13.253ZM12.5616 13.2274C12.5916 13.209 12.6068 13.2014 12.6081 13.2008C12.6085 13.2006 12.6045 13.2026 12.5962 13.206C12.5882 13.2093 12.5738 13.2149 12.5536 13.2215L11.8553 11.065C11.6997 11.1154 11.5392 11.1953 11.3755 11.2958L12.5616 13.2274ZM12.6263 9.54277C11.7715 9.38672 11.039 9.74221 10.5906 10.0176L11.7766 11.9492C11.9149 11.8643 12.0239 11.8145 12.1067 11.7897C12.1846 11.7663 12.2158 11.772 12.2192 11.7726L12.6263 9.54277ZM16.7277 14.5482C16.7277 12.0672 14.9785 9.97218 12.6263 9.54277L12.2192 11.7726C13.4726 12.0014 14.461 13.1397 14.461 14.5482H16.7277ZM16.7277 16.5V14.5482H14.461V16.5H16.7277ZM13.5943 19.6333C15.3248 19.6333 16.7277 18.2305 16.7277 16.5H14.461C14.461 16.9786 14.073 17.3666 13.5943 17.3666V19.6333ZM2.19263 19.6333H13.5943V17.3666H2.19263V19.6333ZM-0.940706 16.5C-0.940706 18.2305 0.462135 19.6333 2.19263 19.6333V17.3666C1.71398 17.3666 1.32596 16.9786 1.32596 16.5H-0.940706ZM-0.940706 14.5482V16.5H1.32596V14.5482H-0.940706ZM3.16055 9.5428C0.80843 9.97225 -0.940706 12.0672 -0.940706 14.5482H1.32596C1.32596 13.1397 2.31433 12.0014 3.56767 11.7726L3.16055 9.5428ZM5.19635 10.0176C4.74787 9.74221 4.01537 9.38672 3.16055 9.5428L3.56767 11.7726C3.57113 11.772 3.60228 11.7663 3.68021 11.7897C3.76305 11.8145 3.87203 11.8643 4.01027 11.9492L5.19635 10.0176ZM7.89344 10.7804C6.90744 10.7804 5.98634 10.5027 5.19635 10.0176L4.01027 11.9492C5.14444 12.6456 6.47413 13.047 7.89344 13.047V10.7804ZM10.5906 10.0176C9.80056 10.5027 8.87945 10.7804 7.89344 10.7804V13.047C9.31277 13.047 10.6425 12.6456 11.7766 11.9492L10.5906 10.0176Z" fill="#0E0E0E" mask="url(#path-2-inside-1_80_1743)"/>
</svg>
