<svg width="22" height="16" viewBox="0 0 22 16" fill="none" xmlns="http://www.w3.org/2000/svg">
<path d="M15.2828 2.21093C14.09 3.42581 13.1138 4.42888 13.1138 4.43763C13.1138 4.46214 14.6813 6.05688 14.7053 6.05688C14.7225 6.05688 15.0903 5.66651 15.0903 5.64726C15.0903 5.64025 15.0061 5.48796 14.9013 5.3094C14.7981 5.12909 14.7122 4.97855 14.7122 4.9733C14.7122 4.96629 15.2227 4.44288 15.8466 3.80743L16.981 2.65207L16.7094 2.37548L16.4396 2.0989L17.2113 1.31815L17.983 0.539161L17.7183 0.269576L17.4536 -7.76164e-06L15.2828 2.21093Z" fill="#496C00"/>
<path d="M3.85496 0.409582C3.69855 0.460348 3.55246 0.596891 3.47512 0.766694L3.42871 0.866475V3.95619V7.04591L3.47512 7.14569C3.53527 7.27873 3.65902 7.41002 3.77934 7.46954L3.87559 7.51855H6.61527H9.35667L9.61105 7.14219L9.86542 6.76582V5.79777V4.83146H9.67636H9.4873V5.79427V6.75707H9.29823H9.10917V5.79427V4.83146H8.92011H8.73105V5.79427V6.75707H8.54199H8.35292V5.79427V4.83146H8.16386H7.9748V5.79427V6.75707H7.78574H7.59667V5.79427V4.83146H7.40761H7.21855V5.79427V6.75707H7.02949H6.84043V5.79427V4.83146H6.65136H6.4623V5.79427V6.75707H6.27324H6.08418V5.79427V4.83146H5.89511H5.70605V5.79427V6.75707H5.03918H4.3723L4.28293 6.66429L4.19355 6.57151V5.8888V5.20608L4.28808 5.15882L4.38262 5.11155L4.37918 4.58289L4.37402 4.05247L4.28465 4.00346L4.19355 3.95444V3.41352V2.87435L4.2898 2.78507L4.38605 2.6958H5.0873H5.79027L5.79886 2.63803C5.80402 2.60827 5.81261 2.49974 5.81777 2.3982C5.82293 2.29667 5.83152 2.14963 5.83668 2.07085L5.84699 1.92556L6.20277 1.92205L6.55683 1.9168L6.60324 1.55794C6.6273 1.36013 6.64964 1.18858 6.64964 1.17632C6.65136 1.16057 6.89027 1.15532 7.78574 1.15532H8.92011L8.92699 1.19383C8.93214 1.21658 8.95277 1.37238 8.97167 1.54044C8.99058 1.70849 9.0112 1.86429 9.01636 1.88529C9.02323 1.92556 9.02495 1.92556 9.37386 1.92556H9.72448L9.7348 2.03409C9.73995 2.09536 9.74855 2.22315 9.7537 2.31943C9.75886 2.41571 9.76745 2.54 9.77261 2.59427L9.78292 2.6958H10.491H11.2009L11.2971 2.79908L11.3951 2.90411V3.42928V3.95619L11.3006 4.00346L11.2078 4.05072L11.2026 4.37982C11.1992 4.56013 11.2009 4.70893 11.206 4.70893C11.2112 4.70893 11.2748 4.6144 11.3487 4.50061L11.4828 4.2923L11.8179 4.02621L12.1514 3.75838V2.34569C12.1514 0.973258 12.1496 0.927744 12.117 0.815709C12.0723 0.670414 11.9382 0.514615 11.7939 0.442842L11.6959 0.393827L7.81152 0.390326C4.65074 0.388575 3.9134 0.392077 3.85496 0.409582Z" fill="#496C00"/>
<path d="M17.5655 1.49676L16.9038 2.17072L17.0362 2.30552L17.1702 2.44031L17.2321 2.38079C17.2665 2.34753 17.5655 2.03768 17.8972 1.69282L18.4988 1.06613L18.3802 0.943591C18.3166 0.87707 18.2547 0.822804 18.2444 0.822804C18.2358 0.822804 17.9299 1.12565 17.5655 1.49676Z" fill="#496C00"/>
<path d="M18.1105 2.04465L17.4453 2.72212L17.5777 2.85691L17.7117 2.9917L18.3769 2.30373L19.042 1.61577L18.9183 1.49148C18.8495 1.42146 18.7894 1.36544 18.7859 1.36544C18.7808 1.36544 18.4783 1.67004 18.1105 2.04465Z" fill="#496C00"/>
<path d="M18.6571 2.59084L17.9868 3.27355L18.1157 3.40484L18.2446 3.53613L18.9063 2.86217C19.2707 2.49106 19.5698 2.18121 19.5732 2.17421C19.5749 2.16721 19.5199 2.10419 19.4512 2.03416L19.3274 1.90812L18.6571 2.59084Z" fill="#496C00"/>
<path d="M19.1862 3.13169L18.5107 3.80915L18.6448 3.94394L18.7771 4.07874L19.4475 3.39602L20.1178 2.71331L19.9889 2.58377L19.86 2.45423L19.1862 3.13169Z" fill="#496C00"/>
<path d="M16.2095 3.98077L15.1697 5.03985L15.3742 5.38296L15.5788 5.72606L14.642 6.68011L13.707 7.63241L14.1075 8.03853L14.5063 8.44641L15.4413 7.49411C16.3436 6.57683 16.3763 6.54357 16.4158 6.56632C16.4381 6.57858 16.5773 6.66085 16.7234 6.74838C16.8695 6.83591 17.0053 6.91818 17.0259 6.92869C17.0569 6.94619 17.1548 6.85166 18.095 5.89412L19.1297 4.84029L18.1878 3.88099L17.2477 2.92344L16.2095 3.98077Z" fill="#496C00"/>
<path d="M19.7226 3.67609L19.0522 4.3588L19.1812 4.49009C19.2516 4.56186 19.3135 4.61963 19.3187 4.61788C19.3238 4.61438 19.6246 4.30803 19.989 3.93342L20.649 3.25596L20.5218 3.12466L20.3929 2.99337L19.7226 3.67609Z" fill="#496C00"/>
<path d="M20.2589 4.2328L19.5938 4.91026L19.7278 5.04681L19.8636 5.18335L20.5288 4.49713L21.1939 3.80917L21.0684 3.68138C20.9997 3.61136 20.9395 3.55359 20.9344 3.55359C20.9292 3.55359 20.6267 3.85818 20.2589 4.2328Z" fill="#496C00"/>
<path d="M20.7055 4.87881L19.9372 5.66306L19.6622 5.38297L19.3872 5.10288L18.2477 6.26349C17.6221 6.90069 17.1013 7.41886 17.091 7.41535C17.0824 7.41185 16.9311 7.32083 16.7575 7.21229L16.443 7.01623L16.2385 7.22455L16.0356 7.43111L16.84 8.25037L17.6427 9.06787L19.8221 6.84818L21.9997 4.63023L21.7367 4.3624L21.4755 4.09632L20.7055 4.87881Z" fill="#496C00"/>
<path d="M12.1876 4.47265L11.892 4.70722L11.1426 5.85558L10.3932 7.00569L11.2423 7.87046L12.0913 8.73698L11.8851 8.93654L11.6788 9.1361L10.8796 8.3221C10.4396 7.87571 10.0752 7.50985 10.0684 7.50985C10.0529 7.50985 9.64211 8.13129 9.64211 8.1523C9.64211 8.1593 9.97727 8.50941 10.388 8.92779L11.1357 9.68928L10.9398 9.89934L10.7438 10.1094L10.0305 9.38293C9.63867 8.98381 9.31383 8.66171 9.31039 8.66521C9.30696 8.67046 9.21071 8.81575 9.09555 8.99081L8.8893 9.30766L9.54071 9.97112C9.89821 10.3352 10.1921 10.6416 10.1921 10.6521C10.1921 10.6626 10.1027 10.7606 9.99446 10.8709L9.7968 11.0722L9.17977 10.4438L8.56274 9.81532L8.44414 9.99737C8.37883 10.0972 8.28258 10.246 8.23274 10.3247L8.14164 10.4718L8.70367 11.0442L9.26399 11.6149L9.05774 11.8249L8.85149 12.035L8.32727 11.5011C8.04024 11.2088 7.80133 10.9724 7.79789 10.9759C7.77383 11.0039 7.4043 11.5781 7.39571 11.6009C7.38883 11.6184 7.52805 11.7707 7.85289 12.1033L8.32039 12.5794L8.05742 12.842C7.75492 13.1431 7.58993 13.2832 7.28743 13.488C6.81305 13.8101 6.32493 14.0096 5.78352 14.1024C5.54977 14.1427 5.04102 14.1427 4.80383 14.1024C4.02352 13.9694 3.32399 13.5842 2.73961 12.9698C2.04352 12.2346 1.61211 11.2788 1.49524 10.2144C1.4729 10.0131 1.4729 9.4407 1.49524 9.22538C1.60008 8.21182 2.01258 7.23676 2.7104 6.35974L2.85305 6.17943V5.45996V4.74223L2.80493 4.77899C2.66399 4.89278 2.24633 5.30241 2.03321 5.53523C0.869614 6.81313 0.243989 8.08227 0.0411769 9.57549C0.00336437 9.85033 -0.00179188 10.6136 0.0308644 10.8884C0.192427 12.2171 0.725239 13.3602 1.62415 14.3002C2.35118 15.0617 3.24493 15.5939 4.20743 15.8407C6.04993 16.3151 7.91649 15.7129 9.44789 14.1532L9.67305 13.9221L10.1337 14.3912C10.388 14.6503 10.6012 14.8621 10.608 14.8621C10.6132 14.8621 10.7627 14.7659 10.9398 14.6486L11.2595 14.435L10.7438 13.9098C10.4585 13.6193 10.2265 13.3742 10.2265 13.3654C10.2265 13.3444 10.5909 12.9716 10.6115 12.9716C10.6184 12.9716 10.8762 13.2271 11.1838 13.5387L11.7424 14.1077L12.0587 13.8941C12.2323 13.7768 12.3749 13.6753 12.3749 13.6683C12.3749 13.663 12.0999 13.3829 11.7648 13.0486C11.4296 12.7142 11.1546 12.4306 11.1546 12.4201C11.1546 12.4114 11.244 12.3116 11.3523 12.2013L11.5499 12L12.2099 12.6722L12.8682 13.3427L13.1913 13.1274L13.5145 12.912L12.796 12.1873L12.0793 11.4608L12.2821 11.2543L12.4866 11.046L13.2412 11.8144L13.9957 12.5829L14.3068 12.3729C14.4787 12.2556 14.6213 12.1575 14.6265 12.154C14.6299 12.1505 14.2707 11.7777 13.8273 11.326L13.0195 10.5033L13.2257 10.2932L13.432 10.0832L14.2741 10.9409C14.7382 11.4118 15.1215 11.7987 15.1284 11.7987C15.1335 11.7987 15.644 11.4573 16.2627 11.0389L17.3851 10.2792L17.612 9.97637L17.8388 9.67177L16.8351 8.6477L15.8296 7.62363L15.0562 8.41138L14.2827 9.19912L13.6124 8.51641L12.9421 7.8337L13.707 7.0547C14.128 6.62582 14.4718 6.26696 14.4718 6.2582C14.4718 6.23895 12.5107 4.23632 12.4935 4.23632C12.4884 4.23632 12.3509 4.34311 12.1876 4.47265Z" fill="#496C00"/>
</svg>
