<svg width="22" height="15" viewBox="0 0 22 15" fill="none" xmlns="http://www.w3.org/2000/svg">
<path d="M0 10.6579H4.32143V7.5H0V10.6579ZM0.785714 8.28947H3.53571V9.86842H0.785714V8.28947Z" fill="#496C00"/>
<path d="M0 14.6053H4.32143V11.4474H0V14.6053ZM0.785714 12.2369H3.53571V13.8158H0.785714V12.2369Z" fill="#496C00"/>
<path d="M2.74986 8.6842H1.57129V9.47368H2.74986V8.6842Z" fill="#496C00"/>
<path d="M2.74986 12.6316H1.57129V13.4211H2.74986V12.6316Z" fill="#496C00"/>
<path d="M12.1786 2.36842H16.5398C16.7223 3.26814 17.5158 3.94737 18.4644 3.94737H20.4286V3.15789H22.0001V0.789474H20.4286V0H18.4644C17.5158 0 16.7223 0.679224 16.5398 1.57895H12.1786C11.0956 1.57895 10.2144 2.46442 10.2144 3.55263C10.2144 4.64084 11.0956 5.52632 12.1786 5.52632H18.4644C19.9807 5.52632 21.2144 6.67737 21.2144 8.09211C21.2144 9.50684 19.9807 10.6579 18.4644 10.6579H12.5715V9.50759C12.5715 8.18309 11.499 7.10526 10.1806 7.10526H4.71436V15H10.1806C11.499 15 12.5715 13.9222 12.5715 12.5977V11.4474H18.4644C20.4139 11.4474 22.0001 9.94204 22.0001 8.09211C22.0001 6.24217 20.4139 4.73684 18.4644 4.73684H12.1786C11.5287 4.73684 11.0001 4.20564 11.0001 3.55263C11.0001 2.89962 11.5287 2.36842 12.1786 2.36842ZM21.2144 1.57895V2.36842H20.4286V1.57895H21.2144ZM18.4644 0.789474H19.6429V3.15789H18.4644C17.8145 3.15789 17.2858 2.6267 17.2858 1.97368C17.2858 1.32067 17.8145 0.789474 18.4644 0.789474ZM11.7858 12.5977C11.7858 13.487 11.0657 14.2105 10.1806 14.2105H5.50007V7.89474H10.1806C11.0657 7.89474 11.7858 8.61829 11.7858 9.50759V12.5977Z" fill="#496C00"/>
</svg>
