<svg width="27" height="27" viewBox="0 0 27 27" fill="none" xmlns="http://www.w3.org/2000/svg">
<path d="M27 13.1523C27 20.4162 21.0663 26.3046 13.7454 26.3046C11.4213 26.3046 9.2379 25.7106 7.3383 24.6681L0 27L2.3925 19.9434C1.1856 17.9616 0.4905 15.6372 0.4905 13.1523C0.4905 5.8884 6.4248 0 13.7454 0C21.0669 0 27 5.8884 27 13.1523ZM13.7454 2.0946C7.6002 2.0946 2.6016 7.0551 2.6016 13.1523C2.6016 15.5718 3.3903 17.8125 4.7244 19.6353L3.3321 23.742L7.6146 22.3809C9.3741 23.5362 11.4819 24.21 13.7457 24.21C19.89 24.21 24.8895 19.2501 24.8895 13.1529C24.8895 7.0557 19.8903 2.0946 13.7454 2.0946ZM20.4387 16.1814C20.3568 16.0473 20.1405 15.9663 19.8159 15.8052C19.4907 15.6441 17.8929 14.8638 17.5959 14.7567C17.298 14.6493 17.0808 14.5953 16.8645 14.9178C16.6482 15.2406 16.0254 15.9663 15.8355 16.1814C15.6459 16.3971 15.4566 16.4241 15.1314 16.2627C14.8068 16.1016 13.7601 15.7608 12.519 14.6628C11.5533 13.8084 10.9011 12.7536 10.7115 12.4305C10.5222 12.108 10.6917 11.9337 10.854 11.7732C11.0004 11.6286 11.1792 11.3967 11.3415 11.2086C11.5044 11.0202 11.5584 10.8861 11.6661 10.6707C11.775 10.4556 11.7207 10.2675 11.6391 10.1058C11.5581 9.9447 10.9077 8.3583 10.6371 7.7127C10.3665 7.0677 10.0962 7.1751 9.9063 7.1751C9.717 7.1751 9.5001 7.1481 9.2835 7.1481C9.0669 7.1481 8.7147 7.2288 8.4168 7.5513C8.1192 7.8741 7.2801 8.6541 7.2801 10.2402C7.2801 11.8266 8.4438 13.3593 8.6067 13.5741C8.769 13.7889 10.8537 17.1501 14.1567 18.441C17.46 19.7313 17.46 19.3008 18.0558 19.2468C18.651 19.1931 19.9776 18.4671 20.2494 17.7147C20.5194 16.9611 20.5194 16.3158 20.4387 16.1814Z" fill="#5D5FEF"/>
</svg>
