<svg width="28" height="29" viewBox="0 0 28 29" fill="none" xmlns="http://www.w3.org/2000/svg">
<path fill-rule="evenodd" clip-rule="evenodd" d="M23.9204 4.4978C21.2883 1.8752 17.7878 0.430249 14.0586 0.428711C6.37408 0.428711 0.120032 6.65266 0.116941 14.3024C0.115911 16.7478 0.757801 19.1349 1.97787 21.239L0 28.4287L7.39066 26.4993C9.42709 27.6048 11.7197 28.1874 14.0529 28.1881H14.0587C21.7423 28.1881 27.9971 21.9636 28 14.3135C28.0015 10.6061 26.5527 7.12024 23.9204 4.4978ZM14.0586 25.8449H14.0537C11.9746 25.844 9.93538 25.2879 8.15602 24.2374L7.73307 23.9874L3.34734 25.1324L4.51796 20.8769L4.24235 20.4406C3.08238 18.6044 2.46985 16.4822 2.47088 14.3033C2.47329 7.94499 7.6716 2.77207 14.0632 2.77207C17.1583 2.7731 20.0677 3.97417 22.2554 6.15398C24.4432 8.33379 25.6473 11.2312 25.6462 14.3127C25.6435 20.6715 20.4455 25.8449 14.0586 25.8449ZM20.4146 17.2079C20.0664 17.0342 18.3536 16.1958 18.0342 16.0799C17.7152 15.9642 17.4827 15.9066 17.2507 16.2536C17.0183 16.6005 16.3508 17.3815 16.1475 17.6127C15.9442 17.8441 15.7412 17.8732 15.3928 17.6995C15.0444 17.5261 13.922 17.1598 12.5914 15.9788C11.5559 15.0595 10.8568 13.9242 10.6535 13.5773C10.4505 13.23 10.6518 13.0605 10.8063 12.8698C11.1834 12.4037 11.5611 11.9151 11.6771 11.6839C11.7934 11.4525 11.7352 11.25 11.6479 11.0765C11.5611 10.9031 10.8644 9.19666 10.5742 8.50229C10.2912 7.82656 10.0042 7.91782 9.79028 7.90723C9.58731 7.89714 9.35497 7.89509 9.12263 7.89509C8.89047 7.89509 8.51303 7.98174 8.19363 8.329C7.8744 8.6761 6.97459 9.5147 6.97459 11.2211C6.97459 12.9275 8.22282 14.576 8.39694 14.8074C8.57107 15.0388 10.8534 18.5405 14.3477 20.042C15.1789 20.3996 15.8276 20.6127 16.3337 20.7725C17.1682 21.0363 17.9274 20.9991 18.5277 20.9099C19.1971 20.8102 20.5886 20.0711 20.8791 19.2614C21.1693 18.4515 21.1693 17.7575 21.0821 17.6127C20.9952 17.4681 20.7629 17.3815 20.4146 17.2079Z" fill="black"/>
</svg>
